<svg width="24" height="24" viewBox="0 0 24 24" fill="none" xmlns="http://www.w3.org/2000/svg">
<path fill-rule="evenodd" clip-rule="evenodd" d="M20 11.5002C20 6.06999 14.0662 2.31005 9.15085 4.7928L9.14706 4.79472L9.14706 4.79471C5.52859 6.60316 3.95644 11.2141 5.7926 14.8494C5.91281 15.0873 5.933 15.3635 5.84868 15.6164L4.58114 19.4191L8.38377 18.1515C8.63672 18.0672 8.91286 18.0874 9.15085 18.2076C14.0074 20.6607 20.0139 16.8412 20 11.5028L20 11.5002ZM22 11.4991C21.9992 4.61399 14.5263 -0.161269 8.25104 3.00665C3.7843 5.24035 1.77605 10.7958 3.82398 15.366L2.05132 20.684C1.93154 21.0433 2.02506 21.4395 2.29289 21.7073C2.56073 21.9751 2.95689 22.0687 3.31623 21.9489L8.63397 20.1763C14.7713 22.9325 22.0163 18.1598 22 11.4991Z" fill="black"/>
</svg>
